<svg xmlns="http://www.w3.org/2000/svg" height="24" viewBox="0 -960 960 960" width="24"><path d="m370-80-16-128q-13-5-24.5-12T307-235l-119 50L78-375l103-78q-1-7-1-13.5v-27q0-6.5 1-13.5L78-585l110-190 119 50q11-8 23-15t24-12l16-128h220l16 128q13 5 24.5 12t22.5 15l119-50 110 190-103 78q1 7 1 13.5v27q0 6.5-1 13.5l103 78-110 190-119-50q-11 8-23 15t-24 12l-16 128H370Zm112-260q58 0 99-41t41-99q0-58-41-99t-99-41q-59 0-99.5 41T342-480q0 58 40.5 99t99.5 41Zm0-80q-25 0-42.5-17.5T422-480q0-25 17.5-42.5T482-540q25 0 42.5 17.5T542-480q0 25-17.5 42.5T482-420Zm-22-380h40l12 98q25 7 48 21t42 33l92-38 20 34-78 60q6 22 9 45.5t3 48.5q0 25-3 48.5t-9 45.5l78 60-20 34-92-38q-19 19-42 33t-48 21l-12 98h-40l-12-98q-25-7-48-21t-42-33l-92 38-20-34 78-60q-6-22-9-45.5t-3-48.5q0-25 3-48.5t9-45.5l-78-60 20-34 92 38q19-19 42-33t48-21l12-98Z"/></svg>
